<!DOCTYPE svg PUBLIC "-//W3C//DTD SVG 20010904//EN" "http://www.w3.org/TR/2001/REC-SVG-20010904/DTD/svg10.dtd">
<svg version="1.0" xmlns="http://www.w3.org/2000/svg" width="1600px" height="800px" viewBox="0 0 16000 8000" preserveAspectRatio="xMidYMid meet">
<g id="layer101" fill="#0f69cc" stroke="none">
 <path d="M0 4000 l0 -4000 8000 0 8000 0 0 4000 0 4000 -8000 0 -8000 0 0 -4000z"/>
 </g>
<g id="layer102" fill="#2b77cb" stroke="none">
 <path d="M2 4023 c-1 -2191 1 -3983 4 -3983 3 0 328 99 722 220 393 121 718 218 720 215 3 -2 -34 -109 -82 -236 -48 -127 -85 -233 -83 -235 2 -2 2334 -3 5182 -2 l5178 3 -734 249 c-404 137 -737 252 -742 256 -6 5 413 553 461 602 16 16 52 9 590 -110 l574 -126 329 -438 330 -438 64 0 64 0 227 301 c193 256 230 300 248 295 12 -3 622 -138 1356 -301 l1335 -295 128 0 127 0 0 1629 0 1629 -42 -10 c-24 -5 -277 -61 -563 -124 -286 -62 -528 -116 -538 -118 -13 -3 -15 -1 -9 7 188 248 593 789 590 791 -1 1 -374 103 -828 226 -454 123 -829 225 -834 228 -5 3 471 153 1058 333 l1067 328 45 -21 c25 -11 49 -16 52 -12 4 3 3 8 -3 11 -5 2 -404 216 -885 477 l-875 474 -31 -97 c-20 -64 -27 -98 -20 -103 6 -4 386 -166 844 -360 l833 -353 -954 -3 -953 -2 -346 -1138 -345 -1137 -378 -83 c-208 -46 -381 -80 -385 -75 -4 4 -173 554 -376 1221 l-368 1212 -227 0 -227 0 -1954 531 c-1074 292 -1957 535 -1961 539 -10 9 53 211 68 216 6 2 684 145 1507 317 l1496 314 1659 -383 c912 -211 1662 -382 1667 -381 5 2 -787 434 -1761 960 l-1769 957 -2432 0 c-1338 0 -2432 -3 -2431 -7 0 -5 55 -168 123 -363 83 -239 120 -357 112 -362 -6 -3 -371 -202 -810 -442 -440 -240 -801 -437 -802 -439 -3 -2 265 -830 269 -833 1 0 211 43 467 97 256 53 466 97 466 96 1 -1 144 -184 319 -407 l317 -405 -681 -3 c-451 -1 -681 -6 -681 -12 0 -6 202 -634 450 -1397 247 -763 449 -1388 447 -1389 -1 -1 -431 144 -955 322 -524 178 -964 327 -977 330 l-25 6 0 -293 -1 -294 -331 883 c-218 580 -335 878 -341 870 -12 -18 -14 -24 153 490 82 254 150 467 150 472 0 7 -291 10 -825 10 -543 0 -825 3 -825 10 0 6 1 10 3 11 1 0 402 84 892 187 l889 187 118 364 c65 200 117 367 116 371 -2 4 -430 -227 -953 -512 -522 -286 -971 -530 -997 -544 l-48 -24 9 22 c5 13 300 687 656 1498 356 811 649 1481 652 1488 4 10 -2 13 -24 10 -24 -2 -282 -248 -1366 -1300 -735 -714 -1339 -1298 -1342 -1298 -3 0 -6 586 -8 1303 -1 716 -3 -490 -5 -2680z m2745 -100 c-4 -3 -7 0 -7 7 0 7 3 10 7 7 3 -4 3 -10 0 -14z m-10 -30 c-4 -3 -7 0 -7 7 0 7 3 10 7 7 3 -4 3 -10 0 -14z m5100 -1493 c19 -23 28 -28 38 -20 11 9 241 -250 1044 -1174 567 -652 1031 -1188 1031 -1191 0 -3 -931 -5 -2070 -5 l-2070 0 607 697 c333 384 632 728 664 764 l58 65 -529 180 c-291 98 -526 182 -522 186 8 7 1690 526 1710 527 7 1 25 -13 39 -29z"/>
 <path d="M10390 7990 c64 -16 5544 -1192 5578 -1197 l32 -6 0 607 0 606 -2822 -1 c-1553 -1 -2807 -5 -2788 -9z"/>
 </g>
<g id="layer103" fill="#4988cd" stroke="none">
 <path d="M5391 7993 c0 -5 55 -168 123 -363 83 -239 120 -357 112 -362 -6 -3 -371 -202 -810 -442 -440 -240 -801 -437 -802 -439 -3 -2 264 -830 269 -833 1 0 405 84 897 187 492 104 901 188 908 186 9 -1 80 -194 183 -492 93 -269 169 -493 169 -497 0 -5 -439 -8 -975 -8 -656 0 -975 -3 -975 -10 0 -6 202 -634 450 -1397 247 -763 449 -1388 447 -1389 -1 -1 -431 144 -955 322 -524 178 -964 327 -977 330 l-25 6 0 -293 -1 -294 -331 883 c-218 580 -335 878 -341 870 -12 -18 -14 -24 153 490 82 254 150 467 150 472 0 7 -291 10 -827 10 l-828 -1 -702 -1606 -703 -1605 0 -839 c0 -462 3 -839 6 -839 3 0 328 99 722 220 393 121 718 218 720 215 3 -2 -34 -109 -82 -236 -48 -127 -85 -233 -83 -235 2 -2 2334 -3 5182 -2 l5178 3 -1184 402 c-650 222 -1184 401 -1186 399 -2 -2 150 -179 337 -394 187 -215 340 -394 340 -397 0 -3 -931 -5 -2070 -5 l-2070 0 607 698 c333 383 632 727 664 763 l58 65 -529 180 c-291 98 -526 182 -522 186 8 7 4054 1250 4057 1246 1 -2 172 -229 380 -506 208 -276 376 -504 374 -506 -2 -2 -490 -110 -1084 -241 -1416 -311 -1261 -274 -1239 -295 14 -13 463 -116 1654 -379 899 -199 1638 -365 1641 -369 4 -4 145 -191 314 -417 170 -226 313 -416 320 -423 9 -10 59 50 236 284 123 163 227 301 230 307 4 6 555 -112 1390 -297 l1384 -306 128 0 127 0 0 1629 0 1629 -42 -10 c-390 -87 -1174 -258 -1180 -256 -4 2 132 187 302 413 170 225 308 411 306 412 -1 1 -359 99 -796 218 -437 119 -802 218 -810 221 -8 3 466 154 1053 334 l1068 329 45 -21 c25 -11 49 -16 52 -12 4 3 3 8 -3 11 -5 2 -404 216 -885 477 l-875 474 -31 -97 c-20 -64 -27 -98 -20 -103 6 -4 386 -166 844 -360 l833 -353 -954 -3 -953 -2 -346 -1138 -345 -1137 -378 -83 c-208 -46 -381 -80 -385 -75 -4 4 -173 554 -376 1221 l-368 1212 -228 0 -227 0 -1562 425 c-859 234 -1564 423 -1566 421 -2 -2 138 -192 311 -422 l315 -419 -891 -3 c-490 -1 -893 0 -895 2 -5 5 426 1267 436 1278 3 3 680 147 1503 320 1007 210 1491 315 1475 320 -71 24 -4968 1148 -4999 1148 -21 0 -38 -3 -37 -7z m-2644 -4070 c-4 -3 -7 0 -7 7 0 7 3 10 7 7 3 -4 3 -10 0 -14z m-10 -30 c-4 -3 -7 0 -7 7 0 7 3 10 7 7 3 -4 3 -10 0 -14z"/>
 <path d="M10390 7990 c64 -16 5544 -1192 5578 -1197 l32 -6 0 607 0 606 -2822 -1 c-1553 -1 -2807 -5 -2788 -9z"/>
 <path d="M2432 5525 c-546 -298 -998 -547 -1004 -553 -7 -7 -10 -13 -7 -15 2 -2 402 80 889 182 l884 186 118 364 c65 200 117 367 116 371 -2 4 -450 -237 -996 -535z"/>
 </g>
<g id="layer104" fill="#7aa4d3" stroke="none">
 <path d="M5391 7993 c0 -5 55 -168 123 -363 83 -239 120 -357 112 -362 -6 -3 -371 -202 -810 -442 -440 -240 -801 -437 -802 -439 -3 -2 264 -830 269 -833 1 0 405 84 897 187 492 104 901 188 908 186 9 -1 131 -342 318 -887 167 -487 308 -893 312 -904 6 -13 110 279 367 1025 197 574 361 1047 364 1051 3 3 680 147 1503 320 1007 210 1491 315 1475 320 -71 24 -4968 1148 -4999 1148 -21 0 -38 -3 -37 -7z"/>
 <path d="M10390 7990 c64 -16 5544 -1192 5578 -1197 l32 -6 0 607 0 606 -2822 -1 c-1553 -1 -2807 -5 -2788 -9z"/>
 <path d="M2432 5525 c-546 -298 -998 -547 -1004 -553 -7 -7 -10 -13 -7 -15 2 -2 402 80 889 182 l884 186 118 364 c65 200 117 367 116 371 -2 4 -450 -237 -996 -535z"/>
 <path d="M14204 5751 l-31 -99 26 -12 c162 -74 1795 -760 1799 -756 3 4 3 7 1 9 -2 2 -382 207 -844 457 -462 249 -858 463 -881 476 l-40 24 -30 -99z"/>
 <path d="M8172 5772 c2 -4 144 -195 317 -425 l314 -417 1241 1 c1064 1 1235 3 1196 15 -55 16 -3061 834 -3067 834 -3 0 -3 -3 -1 -8z"/>
 <path d="M13732 4198 c-216 -700 -464 -1530 -459 -1534 3 -3 340 68 748 157 l742 164 313 415 c172 228 312 416 310 417 -2 2 -1547 423 -1608 438 -25 7 -27 4 -46 -57z"/>
 <path d="M2025 1997 c-406 -1084 -740 -1978 -743 -1984 -3 -10 297 -13 1482 -13 817 0 1486 2 1486 5 0 5 -1481 3959 -1484 3962 -1 2 -335 -885 -741 -1970z"/>
 <path d="M11125 3453 c-528 -162 -964 -299 -969 -303 -12 -11 743 -1010 763 -1009 44 1 1576 347 1575 355 -1 5 -87 289 -190 631 -142 469 -193 623 -204 622 -8 0 -447 -133 -975 -296z"/>
 <path d="M11878 846 c4 -7 148 -200 321 -430 248 -328 317 -414 326 -404 29 32 445 589 445 595 0 5 -210 54 -468 111 -257 57 -504 111 -549 121 -59 14 -81 15 -75 7z"/>
 </g>
<g id="layer105" fill="#9ab6d5" stroke="none">
 <path d="M7865 7428 c-80 -226 -412 -1204 -410 -1206 2 -2 676 137 1499 310 1000 209 1488 315 1473 320 -33 11 -2532 588 -2546 588 -6 0 -14 -6 -16 -12z"/>
 <path d="M4835 6837 c-434 -238 -798 -437 -807 -442 -15 -9 -3 -52 118 -425 74 -228 136 -415 137 -416 2 -1 1768 369 1804 378 7 2 -54 194 -168 523 -257 749 -281 815 -288 814 -3 0 -361 -195 -796 -432z"/>
 <path d="M2432 5525 c-546 -298 -998 -547 -1004 -553 -7 -7 -10 -13 -7 -15 2 -2 402 80 889 182 l884 186 118 364 c65 200 117 367 116 371 -2 4 -450 -237 -996 -535z"/>
 <path d="M14204 5751 l-31 -99 26 -12 c162 -74 1795 -760 1799 -756 3 4 3 7 1 9 -2 2 -382 207 -844 457 -462 249 -858 463 -881 476 l-40 24 -30 -99z"/>
 </g>
<g id="layer106" fill="#a5bbd4" stroke="none">
 <path d="M14204 5751 l-31 -99 26 -12 c162 -74 1795 -760 1799 -756 3 4 3 7 1 9 -2 2 -382 207 -844 457 -462 249 -858 463 -881 476 l-40 24 -30 -99z"/>
 </g>

</svg>